<?xml version="1.0" encoding="utf-8"?>
<!-- Generator: Adobe Illustrator 16.0.0, SVG Export Plug-In . SVG Version: 6.00 Build 0)  -->
<!DOCTYPE svg PUBLIC "-//W3C//DTD SVG 1.1//EN" "http://www.w3.org/Graphics/SVG/1.1/DTD/svg11.dtd">
<svg version="1.1" id="Layer_1" xmlns="http://www.w3.org/2000/svg" xmlns:xlink="http://www.w3.org/1999/xlink" x="0px" y="0px"
	 width="2033px" height="1470px" viewBox="0 0 2033 1470" style="enable-background:new 0 0 2033 1470;" xml:space="preserve">
<g>
	<path style="fill-rule:evenodd;clip-rule:evenodd;" d="M1014.972,484c2,0,3.999,0,5.999,0c8.372,0.44,14.435,5.112,20.092,10.723
		c15.257,15.133,32.824,27.147,51.487,37.615c40.506,22.72,84.334,35.247,129.958,42.298c16.39,2.534,25.25,14.78,22.469,31.165
		c-5.193,30.59-13.079,60.561-21.638,90.344c-9.578,33.333-21.047,66.026-34.843,97.863
		c-18.081,41.724-39.632,81.475-67.957,117.256c-23.283,29.409-50.563,54.22-83.539,72.577c-12.82,7.137-24.855,7.354-37.792,0.181
		c-24.722-13.706-46.594-30.966-65.852-51.494c-22.327-23.8-40.828-50.44-56.941-78.79c-25.321-44.548-43.862-91.945-59.224-140.667
		c-9.977-31.644-17.904-63.826-24.493-96.341c-0.789-3.893-0.504-7.923-1.7-11.746c0-3,0-6,0-8.999
		c3.115-13.303,9.441-19.268,23.301-21.492c35.839-5.747,70.694-14.959,103.88-29.836c28.744-12.886,55.469-28.963,78.059-51.267
		C1001.479,488.219,1007.588,484.857,1014.972,484z"/>
	<path style="fill-rule:evenodd;clip-rule:evenodd;fill:#FEFEFE;" d="M1015.972,488.912c0,1.958,0,3.591,0,5.224
		c0,78.121-0.045,156.242,0.114,234.363c0.01,4.598-1.206,5.585-5.653,5.573c-58.465-0.157-116.932-0.128-175.397-0.046
		c-3.521,0.005-5.098-0.713-6.421-4.548c-8.747-25.356-15.925-51.174-22.309-77.174c-3.99-16.25-8.134-32.559-10.236-49.213
		c-1.618-12.828,6.084-21.139,17.845-22.951c33.686-5.19,66.389-13.648,97.977-26.53c24.113-9.834,46.627-22.49,67.545-37.893
		c6.842-5.038,13.387-10.616,19.274-16.881C1003.312,493.942,1009.051,490.778,1015.972,488.912z"/>
	<path style="fill-rule:evenodd;clip-rule:evenodd;fill:#FEFEFE;" d="M1204.013,737.968c-7.725,21.769-15.786,42.828-25.1,63.393
		c-12.208,26.954-25.848,53.18-42.153,77.868c-9.109,13.791-19.046,27.059-29.94,39.605c-5.395,6.211-10.979,12.323-16.736,18.066
		c-9.093,9.067-18.891,17.524-29.468,25.015c-10.141,7.18-20.653,13.69-31.619,19.47c-8.482,4.47-9.025,4.065-9.025-5.079
		c0-77.628,0.047-155.257-0.117-232.886c-0.01-4.637,1.265-5.565,5.674-5.554c57.639,0.153,115.276,0.102,172.915,0.102
		C1200.21,737.968,1201.977,737.968,1204.013,737.968z"/>
</g>
</svg>
