<?xml version="1.0" encoding="utf-8"?>
<!-- Generator: Adobe Illustrator 16.0.0, SVG Export Plug-In . SVG Version: 6.00 Build 0)  -->
<!DOCTYPE svg PUBLIC "-//W3C//DTD SVG 1.1//EN" "http://www.w3.org/Graphics/SVG/1.1/DTD/svg11.dtd">
<svg version="1.1" xmlns="http://www.w3.org/2000/svg" xmlns:xlink="http://www.w3.org/1999/xlink" x="0px" y="0px" width="2033px"
	 height="1470px" viewBox="-411.5 -267.5 2033 1470" style="enable-background:new -411.5 -267.5 2033 1470;" xml:space="preserve">
<style type="text/css">
<![CDATA[
	.st0{font-size:21.3802;}
	.st1{font-size:21.4804;}
	.st2{font-size:21.4893;}
	.st3{font-size:21.5455;}
	.st4{font-size:21.6556;}
	.st5{font-size:21.7202;}
	.st6{font-size:21.7245;}
	.st7{font-size:21.7332;}
	.st8{font-size:21.7637;}
	.st9{font-size:21.7855;}
	.st10{font-size:21.9139;}
	.st11{font-size:21.9166;}
	.st12{font-size:21.9175;}
	.st13{font-size:22.0501;}
	.st14{font-size:22.1062;}
	.st15{font-size:22.1135;}
	.st16{font-size:22.1493;}
	.st17{font-size:22.1865;}
	.st18{font-family:'ArialMT';}
	.st19{display:none;}
]]>
</style>
<g id="Layer_2" class="st19">
	
		<image style="display:inline;overflow:visible;" width="2033" height="1470" xlink:href="images/standard_colored.png"  transform="matrix(1 0 0 1 -411.5 -267.5)">
	</image>
</g>
<g id="Layer_1">
	<text transform="matrix(1.0289 0 0 1 -370.7915 653.292)" class="st18 st1">Mid-Atlantic Ocean</text>
	<text transform="matrix(1.0289 0 0 1 -380.0005 96.5923)" class="st18 st1">North Atlantic Ocean</text>
	<text transform="matrix(1.0289 0 0 1 194.6533 -53.7705)" class="st18 st1">Norwegian Sea</text>
	<text transform="matrix(1.0289 0 0 1 807.9883 -180.8638)" class="st18 st1">Barents Sea</text>
	<text transform="matrix(1.0289 0 0 1 174.394 343.6172)" class="st18 st1">North Sea</text>
	<text transform="matrix(1.0289 0 0 1 -123.9849 495.7705)" class="st18 st1">Irish Sea</text>
	<text transform="matrix(1.0289 0 0 1 -50.3101 558.4219)" class="st18 st1">English Channel</text>
	<text transform="matrix(1.0289 0 0 1 951.6504 853.7764)" class="st18 st1">Black Sea</text>
	<text transform="matrix(1.0289 0 0 1 826.4023 1193.8838)" class="st18 st1">Eastern Mediterranean</text>
	<text transform="matrix(1.0289 0 0 1 478.2969 1159.8711)" class="st18 st1">Ionian Sea</text>
	<text transform="matrix(1.0289 0 0 1 98.8779 920.0068)" class="st18 st1">Gulf of Lyon</text>
	<text transform="matrix(1.0289 0 0 1 -66.8872 1056.0488)" class="st18 st1">Western Mediterranean</text>
	<text transform="matrix(0.7627 0.6523 -0.6712 0.7413 434.0933 846.6182)" class="st18 st7">Adriatic Sea</text>
	<text transform="matrix(1.0289 0 0 1 303.3228 1022.04)" class="st18 st1">Tyrrhenian</text>
	<text transform="matrix(1.0289 0 0 1 353.0518 1052.4707)" class="st18 st1">Sea</text>
	<text transform="matrix(1.0289 0 0 1 741.6777 1115.1201)" class="st18 st1">Aegean</text>
	<text transform="matrix(1.0289 0 0 1 767.4648 1143.7617)" class="st18 st1">Sea</text>
	<text transform="matrix(1.0289 0 0 1 356.7354 323.9258)" class="st18 st1">Skagerrak</text>
	<path d="M1034.35,969.411c0-6.804-5.713-12.171-12.71-12.171c-7.001,0-12.526,5.367-12.526,12.171s5.525,12.352,12.526,12.352
		C1028.637,981.763,1034.35,976.215,1034.35,969.411"/>
	<path d="M1029.191,969.411c0-3.937-3.316-7.159-7.552-7.159c-4.237,0-7.55,3.223-7.55,7.159c0,3.939,3.313,7.161,7.55,7.161
		C1025.875,976.572,1029.191,973.351,1029.191,969.411"/>
	<path d="M861.029,938.443c0-6.801-5.524-12.35-12.521-12.35c-7.001,0-12.712,5.549-12.712,12.35
		c0,6.802,5.711,12.352,12.712,12.352C855.505,950.795,861.029,945.245,861.029,938.443"/>
	<path d="M856.058,938.443c0-3.938-3.315-6.98-7.55-6.98c-4.238,0-7.551,3.043-7.551,6.98c0,4.117,3.313,7.16,7.551,7.16
		C852.742,945.604,856.058,942.561,856.058,938.443"/>
	<path d="M873.002,1050.321c0-6.802-5.707-12.351-12.71-12.351c-6.998,0-12.708,5.549-12.708,12.351s5.71,12.352,12.708,12.352
		C867.295,1062.673,873.002,1057.123,873.002,1050.321"/>
	<path d="M867.844,1050.321c0-3.938-3.313-7.161-7.552-7.161c-4.234,0-7.55,3.223-7.55,7.161c0,3.938,3.315,7.158,7.55,7.158
		C864.531,1057.479,867.844,1054.259,867.844,1050.321"/>
	<path d="M1032.504,776.265c0-6.798-5.709-12.167-12.708-12.167c-6.998,0-12.71,5.369-12.71,12.167
		c0,6.804,5.712,12.354,12.71,12.354C1026.795,788.619,1032.504,783.068,1032.504,776.265"/>
	<path d="M1027.347,776.265c0-3.936-3.315-7.155-7.551-7.155s-7.55,3.22-7.55,7.155c0,3.941,3.314,7.162,7.55,7.162
		S1027.347,780.206,1027.347,776.265"/>
	<path d="M1016.482,382.459c0-6.801-5.713-12.171-12.709-12.171c-6.998,0-12.709,5.37-12.709,12.171
		c0,6.801,5.711,12.35,12.709,12.35C1010.77,394.809,1016.482,389.26,1016.482,382.459"/>
	<path d="M1011.326,382.459c0-3.938-3.316-7.16-7.553-7.16c-4.238,0-7.55,3.222-7.55,7.16c0,3.939,3.312,7.162,7.55,7.162
		C1008.01,389.621,1011.326,386.398,1011.326,382.459"/>
	<path d="M868.949,258.947c0-6.802-5.707-12.352-12.707-12.352c-6.997,0-12.711,5.55-12.711,12.352
		c0,6.802,5.714,12.172,12.711,12.172C863.242,271.119,868.949,265.75,868.949,258.947"/>
	<path d="M863.792,258.947c0-3.938-3.314-7.159-7.55-7.159c-4.236,0-7.552,3.221-7.552,7.159c0,3.938,3.315,7.161,7.552,7.161
		C860.478,266.108,863.792,262.886,863.792,258.947"/>
	<path d="M586.045,262.705c0-6.801-5.708-12.35-12.71-12.35c-6.813,0-12.524,5.549-12.524,12.35c0,6.803,5.711,12.353,12.524,12.353
		C580.336,275.058,586.045,269.508,586.045,262.705"/>
	<path d="M581.07,262.705c0-3.938-3.498-7.159-7.735-7.159c-4.052,0-7.552,3.222-7.552,7.159c0,3.939,3.5,7.162,7.552,7.162
		C577.572,269.867,581.07,266.645,581.07,262.705"/>
	<path d="M438.697,231.739c0-6.802-5.709-12.172-12.709-12.172c-6.999,0-12.524,5.37-12.524,12.172
		c0,6.801,5.525,12.351,12.524,12.351C432.988,244.09,438.697,238.54,438.697,231.739"/>
	<path d="M433.725,231.739c0-3.939-3.5-6.982-7.737-6.982c-4.236,0-7.551,3.043-7.551,6.982c0,3.938,3.314,7.16,7.551,7.16
		C430.225,238.899,433.725,235.677,433.725,231.739"/>
	<path d="M657.877,540.876c0-6.8-5.713-12.35-12.711-12.35s-12.705,5.55-12.705,12.35c0,6.805,5.707,12.352,12.705,12.352
		S657.877,547.681,657.877,540.876"/>
	<path d="M652.719,540.698c0-3.938-3.314-6.981-7.553-6.981c-4.234,0-7.55,3.043-7.55,6.981c0,4.118,3.315,7.157,7.55,7.157
		C649.404,547.855,652.719,544.816,652.719,540.698"/>
	<path d="M526.554,710.752c0-6.804-5.712-12.351-12.709-12.351c-6.999,0-12.709,5.547-12.709,12.351s5.71,12.174,12.709,12.174
		C520.842,722.926,526.554,717.556,526.554,710.752"/>
	<path d="M521.396,710.571c0-3.938-3.317-7.159-7.552-7.159s-7.553,3.222-7.553,7.159c0,3.939,3.317,7.161,7.553,7.161
		S521.396,714.511,521.396,710.571"/>
	<path d="M609.987,729.907c0-6.804-5.525-12.352-12.523-12.352s-12.71,5.548-12.71,12.352c0,6.621,5.712,12.17,12.71,12.17
		S609.987,736.528,609.987,729.907"/>
	<path d="M605.014,729.907c0-4.117-3.498-7.163-7.549-7.163c-4.237,0-7.737,3.046-7.737,7.163c0,3.936,3.5,6.98,7.737,6.98
		C601.516,736.888,605.014,733.843,605.014,729.907"/>
	<path d="M502.425,787.901c0-6.8-5.527-12.35-12.525-12.35c-6.999,0-12.708,5.55-12.708,12.35c0,6.625,5.709,12.174,12.708,12.174
		C496.897,800.075,502.425,794.526,502.425,787.901"/>
	<path d="M497.452,787.725c0-3.939-3.316-7.161-7.552-7.161s-7.551,3.222-7.551,7.161c0,3.937,3.315,7.156,7.551,7.156
		S497.452,791.661,497.452,787.725"/>
	<path d="M232.412,836.413c0-6.802-5.71-12.172-12.709-12.172c-7,0-12.708,5.37-12.708,12.172c0,6.8,5.708,12.352,12.708,12.352
		C226.701,848.765,232.412,843.213,232.412,836.413"/>
	<path d="M227.254,836.413c0-3.938-3.316-7.16-7.552-7.16c-4.236,0-7.55,3.222-7.55,7.16c0,3.937,3.314,7.159,7.55,7.159
		C223.938,843.572,227.254,840.35,227.254,836.413"/>
	<path d="M-55.468,872.747c0-6.799-5.71-12.169-12.71-12.169c-6.999,0-12.708,5.37-12.708,12.169
		c0,6.807,5.709,12.354,12.708,12.354C-61.178,885.102-55.468,879.554-55.468,872.747"/>
	<path d="M-60.625,872.93c0-3.938-3.314-7.162-7.552-7.162c-4.236,0-7.551,3.224-7.551,7.162c0,3.937,3.315,7.16,7.551,7.16
		C-63.939,880.09-60.625,876.866-60.625,872.93"/>
	<path d="M-242.599,884.386c0-6.802-5.71-12.35-12.525-12.35c-6.999,0-12.708,5.548-12.708,12.35
		c0,6.622,5.709,12.172,12.708,12.172C-248.309,896.558-242.599,891.008-242.599,884.386"/>
	<path d="M-247.574,884.386c0-3.938-3.498-7.162-7.55-7.162c-4.236,0-7.735,3.224-7.735,7.162c0,3.937,3.499,7.158,7.735,7.158
		C-251.071,891.544-247.574,888.322-247.574,884.386"/>
	<path d="M303.322,1123.714c0-6.802-5.708-12.351-12.709-12.351c-7,0-12.708,5.549-12.708,12.351c0,6.62,5.708,12.171,12.708,12.171
		C297.614,1135.885,303.322,1130.334,303.322,1123.714"/>
	<path d="M298.165,1123.714c0-4.118-3.314-7.162-7.551-7.162s-7.552,3.044-7.552,7.162c0,3.938,3.315,6.981,7.552,6.981
		S298.165,1127.651,298.165,1123.714"/>
	<path d="M705.764,1092.745c0-6.802-5.71-12.352-12.707-12.352c-7.001,0-12.526,5.55-12.526,12.352
		c0,6.803,5.525,12.173,12.526,12.173C700.054,1104.918,705.764,1099.548,705.764,1092.745"/>
	<path d="M700.79,1092.745c0-3.938-3.497-7.161-7.733-7.161c-4.053,0-7.552,3.223-7.552,7.161c0,3.939,3.499,7.161,7.552,7.161
		C697.293,1099.906,700.79,1096.685,700.79,1092.745"/>
	<path d="M649.771,849.656c0-6.799-5.709-12.35-12.709-12.35c-6.997,0-12.707,5.551-12.707,12.35c0,6.805,5.71,12.174,12.707,12.174
		C644.063,861.83,649.771,856.461,649.771,849.656"/>
	<path d="M644.612,849.656c0-3.936-3.314-7.156-7.55-7.156s-7.551,3.221-7.551,7.156c0,3.939,3.315,7.161,7.551,7.161
		S644.612,853.596,644.612,849.656"/>
	<path d="M741.495,907.657c0-6.804-5.708-12.353-12.708-12.353s-12.709,5.549-12.709,12.353c0,6.802,5.709,12.172,12.709,12.172
		S741.495,914.459,741.495,907.657"/>
	<path d="M736.337,907.475c0-3.936-3.315-7.158-7.55-7.158c-4.236,0-7.549,3.223-7.549,7.158c0,3.94,3.313,7.163,7.549,7.163
		C733.021,914.638,736.337,911.415,736.337,907.475"/>
	<path d="M777.227,834.265c0-6.804-5.709-12.351-12.707-12.351c-7.002,0-12.71,5.547-12.71,12.351
		c0,6.802,5.708,12.351,12.71,12.351C771.518,846.615,777.227,841.066,777.227,834.265"/>
	<path d="M772.071,834.265c0-3.938-3.316-6.981-7.552-6.981c-4.239,0-7.555,3.044-7.555,6.981c0,3.937,3.315,7.159,7.555,7.159
		C768.755,841.424,772.071,838.201,772.071,834.265"/>
	<path d="M404.623,909.624c0-6.801-5.708-12.351-12.71-12.351c-6.998,0-12.707,5.55-12.707,12.351
		c0,6.803,5.709,12.175,12.707,12.175C398.915,921.799,404.623,916.427,404.623,909.624"/>
	<path d="M399.467,909.445c0-3.938-3.316-7.16-7.554-7.16c-4.236,0-7.549,3.223-7.549,7.16s3.313,7.158,7.549,7.158
		C396.15,916.604,399.467,913.383,399.467,909.445"/>
	<path d="M467.798,963.686c0-6.804-5.708-12.353-12.707-12.353c-7.001,0-12.709,5.549-12.709,12.353
		c0,6.803,5.708,12.352,12.709,12.352C462.089,976.037,467.798,970.488,467.798,963.686"/>
	<path d="M462.641,963.686c0-3.939-3.314-7.161-7.55-7.161c-4.237,0-7.554,3.222-7.554,7.161c0,3.935,3.316,7.158,7.554,7.158
		C459.327,970.844,462.641,967.62,462.641,963.686"/>
	<path d="M401.123,801.148c0-6.804-5.708-12.351-12.707-12.351c-6.999,0-12.709,5.547-12.709,12.351s5.711,12.353,12.709,12.353
		C395.414,813.501,401.123,807.952,401.123,801.148"/>
	<path d="M395.966,801.148c0-3.938-3.314-7.163-7.55-7.163c-4.237,0-7.553,3.226-7.553,7.163c0,3.938,3.315,7.161,7.553,7.161
		C392.651,808.31,395.966,805.087,395.966,801.148"/>
	<path d="M167.762,625.547c0-6.804-5.709-12.172-12.708-12.172c-7,0-12.709,5.368-12.709,12.172c0,6.802,5.71,12.352,12.709,12.352
		C162.053,637.898,167.762,632.349,167.762,625.547"/>
	<path d="M162.605,625.547c0-3.94-3.315-6.982-7.551-6.982c-4.236,0-7.552,3.042-7.552,6.982c0,3.938,3.316,7.157,7.552,7.157
		C159.29,632.704,162.605,629.484,162.605,625.547"/>
	<path d="M16.18,602.634c0-6.8-5.525-12.352-12.525-12.352c-6.998,0-12.708,5.552-12.708,12.352c0,6.803,5.71,12.354,12.708,12.354
		C10.654,614.987,16.18,609.437,16.18,602.634"/>
	<path d="M11.207,602.634c0-3.938-3.315-7.161-7.552-7.161c-4.235,0-7.735,3.223-7.735,7.161c0,3.938,3.5,7.16,7.735,7.16
		C7.891,609.794,11.207,606.571,11.207,602.634"/>
	<path d="M247.883,562.717c0-6.804-5.711-12.353-12.709-12.353s-12.523,5.549-12.523,12.353c0,6.802,5.525,12.35,12.523,12.35
		S247.883,569.519,247.883,562.717"/>
	<path d="M242.911,562.717c0-3.938-3.5-7.16-7.737-7.16c-4.053,0-7.551,3.222-7.551,7.16c0,3.938,3.498,7.16,7.551,7.16
		C239.411,569.877,242.911,566.654,242.911,562.717"/>
	<path d="M284.166,492.724c0-6.801-5.708-12.349-12.524-12.349c-6.998,0-12.707,5.548-12.707,12.349
		c0,6.805,5.709,12.353,12.707,12.353C278.458,505.076,284.166,499.528,284.166,492.724"/>
	<path d="M279.194,492.724c0-3.937-3.5-7.158-7.552-7.158c-4.236,0-7.736,3.222-7.736,7.158c0,3.939,3.5,7.162,7.736,7.162
		C275.694,499.886,279.194,496.663,279.194,492.724"/>
	<path d="M402.965,486.642c0-6.625-5.709-12.175-12.708-12.175c-6.998,0-12.709,5.55-12.709,12.175
		c0,6.803,5.711,12.349,12.709,12.349C397.256,498.99,402.965,493.444,402.965,486.642"/>
	<path d="M397.809,486.642c0-3.94-3.315-7.163-7.552-7.163c-4.235,0-7.553,3.223-7.553,7.163c0,3.936,3.318,7.159,7.553,7.159
		C394.494,493.801,397.809,490.577,397.809,486.642"/>
	<path d="M407.017,675.845c0-6.802-5.709-12.17-12.707-12.17c-7.002,0-12.711,5.368-12.711,12.17
		c0,6.805,5.709,12.354,12.711,12.354C401.308,688.198,407.017,682.649,407.017,675.845"/>
	<path d="M401.861,676.024c0-3.937-3.315-7.16-7.55-7.16c-4.238,0-7.554,3.224-7.554,7.16c0,3.938,3.315,7.161,7.554,7.161
		C398.545,683.186,401.861,679.963,401.861,676.024"/>
	<path d="M474.429,536.938c0-6.8-5.711-12.17-12.525-12.17c-6.999,0-12.709,5.37-12.709,12.17c0,6.802,5.71,12.352,12.709,12.352
		C468.718,549.29,474.429,543.74,474.429,536.938"/>
	<path d="M469.456,536.938c0-3.936-3.5-6.98-7.552-6.98c-4.237,0-7.735,3.045-7.735,6.98c0,3.938,3.499,7.162,7.735,7.162
		C465.956,544.101,469.456,540.876,469.456,536.938"/>
	<path d="M139.029,518.68c0-6.801-5.709-12.35-12.708-12.35c-6.999,0-12.708,5.549-12.708,12.35c0,6.802,5.71,12.352,12.708,12.352
		C133.32,531.031,139.029,525.481,139.029,518.68"/>
	<path d="M133.873,518.68c0-3.938-3.315-7.158-7.552-7.158c-4.236,0-7.552,3.221-7.552,7.158c0,3.94,3.316,7.161,7.552,7.161
		C130.558,525.841,133.873,522.62,133.873,518.68"/>
	<path d="M133.688,345.583c0-6.802-5.71-12.349-12.708-12.349c-6.999,0-12.708,5.547-12.708,12.349
		c0,6.804,5.709,12.353,12.708,12.353C127.978,357.936,133.688,352.388,133.688,345.583"/>
	<path d="M128.531,345.583c0-3.936-3.315-7.159-7.551-7.159c-4.237,0-7.552,3.224-7.552,7.159c0,3.939,3.315,7.162,7.552,7.162
		C125.216,352.745,128.531,349.522,128.531,345.583"/>
	<path d="M111.955,432.58c0-6.802-5.71-12.351-12.525-12.351c-6.998,0-12.708,5.549-12.708,12.351
		c0,6.801,5.71,12.351,12.708,12.351C106.245,444.931,111.955,439.381,111.955,432.58"/>
	<path d="M106.981,432.4c0-3.938-3.499-6.979-7.552-6.979c-4.236,0-7.735,3.042-7.735,6.979c0,4.119,3.499,7.161,7.735,7.161
		C103.482,439.562,106.981,436.519,106.981,432.4"/>
	<path d="M450.486,408.415c0-6.802-5.711-12.352-12.71-12.352c-6.999,0-12.523,5.55-12.523,12.352
		c0,6.801,5.524,12.352,12.523,12.352C444.775,420.767,450.486,415.216,450.486,408.415"/>
	<path d="M445.512,408.594c0-3.939-3.499-7.16-7.736-7.16c-4.051,0-7.551,3.221-7.551,7.16c0,3.936,3.5,7.16,7.551,7.16
		C442.013,415.754,445.512,412.53,445.512,408.594"/>
	<text transform="matrix(0.7913 -0.6212 0.6392 0.7691 288.5874 456.3892)" class="st18 st9">Helgoland</text>
	<text transform="matrix(0.7913 -0.6212 0.6392 0.7691 318.0557 459.9683)" class="st18 st9">Bight</text>
	<text transform="matrix(1.0289 0 0 1 592.4907 293.4951)" class="st18 st1">Gulf of</text>
	<text transform="matrix(1.0289 0 0 1 581.4399 322.1357)" class="st18 st1">Bothnia</text>
	<text transform="matrix(1.0289 0 0 1 498.5571 427.7476)" class="st18 st1">Baltic Sea</text>
	<text transform="matrix(1.0289 0 0 1 870.6094 94.8003)" class="st18 st1">NC</text>
	<text transform="matrix(1.0289 0 0 1 -72.4136 982.6582)" class="st18 st1">SC</text>
	<text transform="matrix(1.0289 0 0 1 -112.9321 794.7051)" class="st18 st1">NC</text>
	<text transform="matrix(1.0289 0 0 1 791.4102 277.3853)" class="st18 st1">SC</text>
	<text transform="matrix(1.0289 0 0 1 767.4648 959.3896)" class="st18 st1">SC</text>
	<text transform="matrix(1.0289 0 0 1 811.6699 877.0488)" class="st18 st1">EC</text>
	<text transform="matrix(-0.0897 -0.9682 0.9962 -0.0871 143.0815 458.1812)" class="st18 st17">Yorkshire</text>
	<text transform="matrix(0.474 -0.8626 0.8876 0.4607 106.248 340.0391)" class="st18 st10">Edinburgh</text>
	<text transform="matrix(-0.1597 -0.9601 0.9879 -0.1552 109.9292 415.2192)" class="st18 st16">Liverpool</text>
	<text transform="matrix(0.6353 0.7645 -0.7866 0.6175 341.999 837.667)" class="st18 st11">Tuscany</text>
	<text transform="matrix(0.8369 0.5654 -0.5818 0.8134 399.0947 921.7949)" class="st18 st4">Rome</text>
	<text transform="matrix(0.7529 0.6625 -0.6816 0.7317 461.7197 979.0762)" class="st18 st6">Naples</text>
	<text transform="matrix(0.2898 -0.9325 0.9595 0.2817 376.9941 425.9561)" class="st18 st15">Denmark</text>
	<text transform="matrix(1.0289 0 0 1 833.7734 186.0938)" class="st18 st1">St. Petersburg</text>
	<text transform="matrix(1.0289 0 0 1 1170.8281 363.3057)" class="st18 st1">Moscow</text>
	<text transform="matrix(1.0289 0 0 1 984.8027 628.2324)" class="st18 st1">Sevastopol</text>
	<text transform="matrix(1.0289 0 0 1 819.0371 604.9609)" class="st18 st1">Ukraine</text>
	<text transform="matrix(1.0289 0 0 1 609.0684 570.9512)" class="st18 st1">Warsaw</text>
	<text transform="matrix(1.0289 0 0 1 691.9531 397.3174)" class="st18 st1">Livonia</text>
	<text transform="matrix(1.0289 0 0 1 1272.1309 945.0684)" class="st18 st1">Armenia</text>
	<text transform="matrix(1.0289 0 0 1 1172.668 1039.9404)" class="st18 st1">Syria</text>
	<text transform="matrix(1.0289 0 0 1 933.2324 1054.2598)" class="st18 st1">Smyrna</text>
	<text transform="matrix(1.0289 0 0 1 1005.0625 937.9072)" class="st18 st1">Ankara</text>
	<text transform="matrix(1.0289 0 0 1 830.0898 1000.5596)" class="st18 st1">Constantinople</text>
	<text transform="matrix(1.0289 0 0 1 -111.0913 1141.9717)" class="st18 st1">North Africa</text>
	<text transform="matrix(1.0289 0 0 1 255.4351 1158.082)" class="st18 st1">Tunis</text>
	<text transform="matrix(1.0289 0 0 1 -135.0352 914.6367)" class="st18 st1">Spain</text>
	<text transform="matrix(0.4538 -0.8723 0.8975 0.441 -234.4971 912.8438)" class="st18 st12">Portugal</text>
	<text transform="matrix(1.0289 0 0 1 43.6226 773.2246)" class="st18 st1">Gascony</text>
	<text transform="matrix(1.0289 0 0 1 108.0859 656.874)" class="st18 st1">Paris</text>
	<text transform="matrix(1.0289 0 0 1 23.3618 628.2324)" class="st18 st1">Brest</text>
	<text transform="matrix(1.0289 0 0 1 172.5522 694.4629)" class="st18 st1">Burgundy</text>
	<text transform="matrix(0.8948 0.4798 -0.4937 0.8696 178.0698 561.9961)" class="st18 st2">Belgium</text>
	<text transform="matrix(1.0289 0 0 1 128.3477 810.8145)" class="st18 st1">Marseilles</text>
	<text transform="matrix(1.0289 0 0 1 343.8428 520.8311)" class="st18 st1">Kiel</text>
	<text transform="matrix(1.0289 0 0 1 283.0625 596.0107)" class="st18 st1">Ruhr</text>
	<text transform="matrix(1.0289 0 0 1 334.6353 647.9229)" class="st18 st1">Munich</text>
	<text transform="matrix(1.0289 0 0 1 481.98 574.5303)" class="st18 st1">Silesia</text>
	<text transform="matrix(1.0289 0 0 1 430.4087 506.5098)" class="st18 st1">Berlin</text>
	<text transform="matrix(1.0289 0 0 1 528.0278 495.7705)" class="st18 st1">Prussia</text>
	<text transform="matrix(1.0289 0 0 1 389.8892 173.5625)" class="st18 st1">Norway</text>
	<text transform="matrix(1.0289 0 0 1 481.98 268.4346)" class="st18 st1">Sweden</text>
	<text transform="matrix(1.0289 0 0 1 690.1055 153.8721)" class="st18 st1">Finland</text>
	<text transform="matrix(0.7428 -0.6725 0.692 0.7219 253.5894 544.0957)" class="st18 st5">Holland</text>
	<text transform="matrix(1.0289 0 0 1 45.4648 474.2891)" class="st18 st1">Wales</text>
	<text transform="matrix(0.9335 -0.4088 0.4206 0.9073 106.2471 506.5127)" class="st18 st3">London</text>
	<text transform="matrix(0.2406 -0.9449 0.9723 0.2338 87.8257 309.6035)" class="st18 st13">Clyde</text>
	<text transform="matrix(1.0234 -0.1005 0.1034 0.9946 389.8892 737.4219)" class="st18 st0">Tyrolia</text>
	<text transform="matrix(1.0289 0 0 1 505.9248 687.3018)" class="st18 st1">Vienna</text>
	<text transform="matrix(1.0289 0 0 1 634.8555 739.2139)" class="st18 st1">Budapest</text>
	<text transform="matrix(1.0289 0 0 1 502.2422 837.666)" class="st18 st1">Trieste</text>
	<text transform="matrix(1.0289 0 0 1 620.1211 885.9971)" class="st18 st1">Serbia</text>
	<text transform="matrix(1.0289 0 0 1 640.3809 1029.2012)" class="st18 st1">Greece</text>
	<text transform="matrix(0.782 -0.6317 0.6499 0.76 268.3252 830.501)" class="st18 st8">Piedmont</text>
	<text transform="matrix(0.7327 0.6824 -0.7021 0.712 343.8442 798.2861)" class="st18 st5">Venice</text>
	<text transform="matrix(0.7627 0.6523 -0.6712 0.7413 463.563 936.1201)" class="st18 st7">Apulia</text>
	<text transform="matrix(1.0289 0 0 1 446.9858 633.6025)" class="st18 st1">Bohemia</text>
	<text transform="matrix(1.0289 0 0 1 666.1641 640.7617)" class="st18 st1">Galicia</text>
	<text transform="matrix(1.0289 0 0 1 785.8848 816.1855)" class="st18 st1">Rumania</text>
	<text transform="matrix(1.0289 0 0 1 743.5254 905.6895)" class="st18 st1">Bulgaria</text>
	<text transform="matrix(0.02 0.9717 -0.9998 0.0194 616.4346 923.5879)" class="st18 st14">Albania</text>
	<text transform="matrix(1.0289 0 0 1 126.5059 597.8008)" class="st18 st1">Picardy</text>
</g>
</svg>
